<svg fill="#b1dd8c" version="1.1" id="Capa_1" xmlns="http://www.w3.org/2000/svg" xmlns:xlink="http://www.w3.org/1999/xlink" viewBox="-56.32 -56.32 675.86 675.86" xml:space="preserve" stroke="#b1dd8c" stroke-width="0.00563221"><g id="SVGRepo_bgCarrier" stroke-width="0" transform="translate(0,0), scale(1)"><path transform="translate(-56.32, -56.32), scale(42.24125)" fill="#8FBC8F" d="M9.166.33a2.25 2.25 0 00-2.332 0l-5.25 3.182A2.25 2.25 0 00.5 5.436v5.128a2.25 2.25 0 001.084 1.924l5.25 3.182a2.25 2.25 0 002.332 0l5.25-3.182a2.25 2.25 0 001.084-1.924V5.436a2.25 2.25 0 00-1.084-1.924L9.166.33z" strokewidth="0"></path></g><g id="SVGRepo_tracerCarrier" stroke-linecap="round" stroke-linejoin="round" stroke="#000000" stroke-width="5.632210000000001"></g><g id="SVGRepo_iconCarrier"> <g> <path d="M490.307,165.398c-28.237,0-48.242,13.885-61.965,31.834l-0.803-24.786c0-12.068-8.444-22.988-18.867-22.988H201.166 c-10.414,0-18.867,10.92-18.867,22.988l-2.333,65.704L56.771,138.949c5.814-13.933,6.493-25.541,0.516-29.701 c-8.597-5.977-27.444,6.407-42.094,27.483c-14.65,21.066-19.555,43.07-10.959,49.046c6.589,4.578,19.172-1.596,31.292-14.181 l140.221,184.527l-2.878,77.198c0,12.067,8.444,22.155,18.867,22.155H418.1c10.414,0,18.867-10.088,18.867-22.155l-1.511-40.593 c17.7-21.793,38.25-36.49,58.322-51.322c35.716-26.393,69.442-51.006,69.442-105.886 C563.221,193.397,533.921,165.398,490.307,165.398z M480.792,324.451c-15.023,11.103-31.155,23.218-46.464,38.403l-4.389-121.339 c6.903-21.879,23.352-54.258,60.367-54.258c31.978,0,51.064,18.15,51.064,48.578C541.371,279.699,514.634,299.445,480.792,324.451z "></path> </g> </g></svg>